# xmcd
#
# Track frame offsets:
#	150
#	12684
#	24561
#	39306
#	51775
#	64217
#	76129
#	89911
#	101972
#	113700
#	128065
#	139840
#	153645
#	167289
#	179573
#	193485
#	206051
#	220109
#	232517
#	244534
#	257067
#	271164
#	282977
#	297193
#	308863
#
# Disc length: 4288
#
# Revision: 1
# Processed by: cddbd v1.5.1PL0 Copyright (c) Steve Scherf et al.
# Submitted via: EasyCDDAExtractor 7.5.0.1
# Normalized: r0:DSETVAR1
#
DISCID=6f10be19
DTITLE=Various Artist - Midnight At The Barrelhouse (Rockin' California R&B 1945-51) Disc D
DYEAR=2003
DGENRE=R&B
TTITLE0=Marilyn Scott - Uneasy Blues
TTITLE1=Mel Walker - It Can Never Happen Again
TTITLE2=Mel Walker - Gee Baby
TTITLE3=Mel Walker - Fool's Gold
TTITLE4=Mel Walker - Feel Like Crying Again
TTITLE5=Mel Walker - Heartache, Here I Come
TTITLE6=Mel Walker - Turn The Lights Down Low
TTITLE7=The Barreleers - Hold Me Close
TTITLE8=Redd Lyte - Gonna Take A Train
TTITLE9=Linda Hopkins - Doggin' Blues
TTITLE10=The Vocaleers - Chitlin' Switch
TTITLE11=Linda Hopkins - Warning Blues
TTITLE12=Linda Hopkins - Living And Loving You
TTITLE13=Johnny Otis - Mambo Boogie
TTITLE14=Mel Walker - New Love
TTITLE15=Linda Hopkins - Just Another Flame
TTITLE16=Mel Walker - I'll Ask My Heart
TTITLE17=Little Esther - Looking For A Man
TTITLE18=Little Esther - Other Lips, Other Arms
TTITLE19=Little Esther - The Deacon Moves In
TTITLE20=George Washington - It Ain't The Beauty
TTITLE21=Johnny Otis - All Night Long
TTITLE22=Mel Walker - Help Me Blues
TTITLE23=Mel Walker - Walkin' Shoe Blues
TTITLE24=Johnny Otis - Honky Tonk Boogie
EXTD=
EXTT0=
EXTT1=
EXTT2=
EXTT3=
EXTT4=
EXTT5=
EXTT6=
EXTT7=
EXTT8=
EXTT9=
EXTT10=
EXTT11=
EXTT12=
EXTT13=
EXTT14=
EXTT15=
EXTT16=
EXTT17=
EXTT18=
EXTT19=
EXTT20=
EXTT21=
EXTT22=
EXTT23=
EXTT24=
PLAYORDER=
